<?xml version="1.0" encoding="UTF-8" standalone="no"?>
<svg
   id="SvgjsSvg507798"
   width="208.52734"
   height="39.777451"
   version="1.1"
   sodipodi:docname="tch_bas_logo.svg"
   inkscape:version="1.1.2 (b8e25be8, 2022-02-05)"
   xmlns:inkscape="http://www.inkscape.org/namespaces/inkscape"
   xmlns:sodipodi="http://sodipodi.sourceforge.net/DTD/sodipodi-0.dtd"
   xmlns="http://www.w3.org/2000/svg"
   xmlns:svg="http://www.w3.org/2000/svg">
  <sodipodi:namedview
     id="namedview28"
     pagecolor="#ffffff"
     bordercolor="#666666"
     borderopacity="1.0"
     inkscape:pageshadow="2"
     inkscape:pageopacity="0.0"
     inkscape:pagecheckerboard="0"
     showgrid="false"
     width="1280px"
     inkscape:zoom="2.16"
     inkscape:cx="150.23148"
     inkscape:cy="-73.37963"
     inkscape:window-width="2370"
     inkscape:window-height="1041"
     inkscape:window-x="2172"
     inkscape:window-y="160"
     inkscape:window-maximized="0"
     inkscape:current-layer="SvgjsSvg507798" />
  <defs
     id="SvgjsDefs507799">
    <defs
       id="SvgjsDefs123329" />
  </defs>
  <g
     id="g675"
     transform="matrix(1.3841201,0,0,1.3841201,-79.897437,-18.446417)">
    <g
       id="g138"
       transform="matrix(0.04379563,0,0,0.04379563,43.359386,-61.211225)">
      <g
         id="SvgjsG123333"
         class="text"
         transform="matrix(8.4724892,0,0,8.4724892,2064.7756,2064.9213)"
         light-content="false"
         fill="#383838">
        <path
           d="M -192.09,-32.58 V 0 h 11.88 v -32.58 h 12.84 V -42 h -37.62 v 9.42 z m 75.12,-9.42 h -11.88 v 15.78 h -16.2 V -42 h -11.88 V 0 h 11.88 v -16.38 h 16.2 V 0 h 11.88 z m 42.54,33.84 3.3,8.16 h 12.36 l -18.6,-42 h -11.7 l -18.54,42 h 12.12 l 3.3,-8.16 z m -3.48,-8.76 h -10.8 l 5.4,-13.44 z M -49.41,-42 V 0 h 11.88 v -42 z m 35.43,40.05 c 3.5,1.86 7.45,2.79 11.85,2.79 3.84,0 7.3,-0.68 10.38,-2.04 3.08,-1.36 5.64,-3.32 7.68,-5.88 L 8.37,-13.92 C 5.65,-10.64 2.35,-9 -1.53,-9 c -2.28,0 -4.31,-0.5 -6.09,-1.5 -1.78,-1 -3.16,-2.41 -4.14,-4.23 -0.98,-1.82 -1.47,-3.91 -1.47,-6.27 0,-2.36 0.49,-4.45 1.47,-6.27 0.98,-1.82 2.36,-3.23 4.14,-4.23 1.78,-1 3.81,-1.5 6.09,-1.5 3.88,0 7.18,1.64 9.9,4.92 l 7.56,-6.84 c -2.04,-2.56 -4.6,-4.52 -7.68,-5.88 -3.08,-1.36 -6.54,-2.04 -10.38,-2.04 -4.4,0 -8.35,0.93 -11.85,2.79 -3.5,1.86 -6.25,4.45 -8.25,7.77 -2,3.32 -3,7.08 -3,11.28 0,4.2 1,7.96 3,11.28 2,3.32 4.75,5.91 8.25,7.77 z M 67.17,-42 H 55.29 v 15.78 H 39.09 V -42 H 27.21 V 0 h 11.88 v -16.38 h 16.2 V 0 h 11.88 z m 42.54,33.84 3.3,8.16 h 12.36 l -18.6,-42 H 95.07 L 76.53,0 h 12.12 l 3.3,-8.16 z m -3.48,-8.76 h -10.8 l 5.4,-13.44 z M 134.73,-42 V 0 h 11.88 v -42 z m 66.3,0 h -11.64 v 22.38 L 170.85,-42 h -9.78 V 0 h 11.64 V -22.38 L 191.25,0 h 9.78 z"
           id="path17" />
      </g>
      <rect
         id="SvgjsRect123334"
         width="343.43234"
         height="16.944979"
         fill="#168349"
         light-content="false"
         x="328"
         y="2270.1672"
         style="stroke-width:8.47249" />
      <g
         id="SvgjsG123335"
         class="text"
         transform="matrix(8.4724892,0,0,8.4724892,2041.095,2356.1207)"
         light-content="false"
         fill="#168349">
        <path
           d="m -137.54,-7.21 c -0.55,-0.71 -1.28,-1.22 -2.21,-1.53 0.67,-0.35 1.2,-0.84 1.58,-1.48 0.39,-0.64 0.58,-1.38 0.58,-2.21 0,-1.36 -0.54,-2.43 -1.61,-3.21 -1.07,-0.77 -2.6,-1.16 -4.58,-1.16 h -7.88 V 0 h 8.36 c 2.14,0 3.77,-0.4 4.89,-1.19 1.12,-0.79 1.68,-1.91 1.68,-3.37 0,-1.06 -0.27,-1.94 -0.81,-2.65 z m -11,-7.14 h 4.42 c 1.09,0 1.92,0.19 2.51,0.59 0.58,0.39 0.87,0.97 0.87,1.74 0,0.75 -0.29,1.32 -0.87,1.71 -0.59,0.39 -1.42,0.59 -2.51,0.59 h -4.42 z m 8.67,9.48 c 0,1.61 -1.21,2.42 -3.63,2.42 h -5.04 V -7.3 h 5.04 c 2.42,0 3.63,0.81 3.63,2.43 z m 6.19,-12.94 V 0 h 3 v -17.81 z m 9.19,17.14 c 1.04,0.56 2.21,0.84 3.51,0.84 1.31,0 2.48,-0.28 3.52,-0.84 1.04,-0.56 1.86,-1.34 2.44,-2.34 0.58,-1 0.88,-2.13 0.88,-3.4 0,-1.26 -0.3,-2.39 -0.88,-3.38 -0.58,-0.99 -1.4,-1.77 -2.44,-2.33 -1.04,-0.56 -2.21,-0.84 -3.52,-0.84 -1.3,0 -2.47,0.28 -3.51,0.84 -1.04,0.56 -1.85,1.34 -2.43,2.33 -0.59,0.99 -0.88,2.12 -0.88,3.38 0,1.27 0.29,2.4 0.88,3.4 0.58,1 1.39,1.78 2.43,2.34 z m 6.24,-2.83 c -0.72,0.73 -1.63,1.1 -2.73,1.1 -1.11,0 -2.02,-0.37 -2.73,-1.1 -0.71,-0.74 -1.07,-1.71 -1.07,-2.91 0,-1.2 0.36,-2.17 1.07,-2.9 0.71,-0.74 1.62,-1.11 2.73,-1.11 1.1,0 2.01,0.37 2.73,1.11 0.72,0.73 1.08,1.7 1.08,2.9 0,1.2 -0.36,2.17 -1.08,2.91 z m 9.29,2.83 c 1.06,0.56 2.25,0.84 3.58,0.84 1.24,0 2.34,-0.26 3.3,-0.78 0.95,-0.52 1.67,-1.26 2.17,-2.22 l -2.31,-1.35 c -0.36,0.6 -0.82,1.04 -1.38,1.34 -0.55,0.29 -1.15,0.44 -1.81,0.44 -1.13,0 -2.07,-0.36 -2.79,-1.09 -0.73,-0.73 -1.1,-1.7 -1.1,-2.92 0,-1.21 0.37,-2.19 1.11,-2.91 0.73,-0.73 1.66,-1.1 2.78,-1.1 0.66,0 1.26,0.15 1.81,0.45 0.56,0.29 1.02,0.74 1.38,1.33 l 2.31,-1.34 c -0.48,-0.96 -1.2,-1.7 -2.15,-2.21 -0.95,-0.51 -2.06,-0.77 -3.32,-0.77 -1.35,0 -2.54,0.28 -3.59,0.84 -1.05,0.56 -1.87,1.34 -2.46,2.33 -0.59,0.99 -0.89,2.12 -0.89,3.38 0,1.27 0.3,2.4 0.89,3.4 0.59,1 1.41,1.78 2.47,2.34 z m 16.75,-4.83 4.44,5.5 h 3.65 l -5.86,-7.44 5.36,-5.38 h -3.6 l -6.22,5.76 v -10.75 h -3 V 0 h 3 v -3.38 z m 11.81,4.83 c 1.06,0.56 2.25,0.84 3.58,0.84 1.24,0 2.34,-0.26 3.3,-0.78 0.95,-0.52 1.67,-1.26 2.17,-2.22 l -2.31,-1.35 c -0.36,0.6 -0.82,1.04 -1.38,1.34 -0.55,0.29 -1.15,0.44 -1.81,0.44 -1.13,0 -2.07,-0.36 -2.79,-1.09 -0.73,-0.73 -1.1,-1.7 -1.1,-2.92 0,-1.21 0.37,-2.19 1.11,-2.91 0.73,-0.73 1.66,-1.1 2.78,-1.1 0.66,0 1.26,0.15 1.81,0.45 0.56,0.29 1.02,0.74 1.38,1.33 l 2.31,-1.34 c -0.48,-0.96 -1.2,-1.7 -2.15,-2.21 -0.95,-0.51 -2.06,-0.77 -3.32,-0.77 -1.35,0 -2.54,0.28 -3.59,0.84 -1.05,0.56 -1.87,1.34 -2.46,2.33 -0.59,0.99 -0.89,2.12 -0.89,3.38 0,1.27 0.3,2.4 0.89,3.4 0.59,1 1.41,1.78 2.47,2.34 z m 22.68,-10.87 c -0.98,-0.95 -2.27,-1.42 -3.89,-1.42 -0.89,0 -1.71,0.14 -2.43,0.42 -0.73,0.28 -1.34,0.68 -1.84,1.21 v -6.48 h -3 V 0 h 3 v -6.48 c 0,-1.25 0.32,-2.2 0.96,-2.87 0.64,-0.66 1.51,-0.99 2.62,-0.99 0.97,0 1.72,0.28 2.25,0.85 0.53,0.57 0.79,1.41 0.79,2.53 V 0 h 3 v -7.34 c 0,-1.86 -0.48,-3.26 -1.46,-4.2 z m 14.51,-0.06 c -1,-0.91 -2.45,-1.36 -4.33,-1.36 -1.06,0 -2.06,0.14 -3,0.41 -0.95,0.27 -1.76,0.66 -2.43,1.17 l 1.18,2.19 c 0.48,-0.4 1.07,-0.71 1.76,-0.94 0.7,-0.22 1.41,-0.33 2.13,-0.33 1.05,0 1.85,0.24 2.38,0.72 0.54,0.48 0.81,1.16 0.81,2.06 v 0.19 h -3.31 c -1.84,0 -3.19,0.35 -4.05,1.05 -0.85,0.69 -1.28,1.62 -1.28,2.77 0,0.73 0.19,1.39 0.59,1.98 0.39,0.58 0.94,1.04 1.66,1.37 0.72,0.32 1.56,0.49 2.52,0.49 0.96,0 1.78,-0.15 2.46,-0.45 0.68,-0.29 1.21,-0.72 1.58,-1.28 V 0 h 2.83 v -7.51 c 0,-1.83 -0.5,-3.19 -1.5,-4.09 z m -2.74,9.07 c -0.58,0.34 -1.25,0.51 -2,0.51 -0.77,0 -1.37,-0.16 -1.8,-0.48 -0.43,-0.32 -0.65,-0.75 -0.65,-1.29 0,-1.14 0.86,-1.71 2.59,-1.71 h 3.1 v 1.49 c -0.24,0.64 -0.65,1.13 -1.24,1.48 z m 8.08,-10.29 V 0 h 3 v -12.82 z m 0.14,-2.62 c 0.37,0.34 0.83,0.51 1.37,0.51 0.56,0 1.02,-0.18 1.38,-0.54 0.36,-0.36 0.54,-0.8 0.54,-1.33 0,-0.5 -0.18,-0.91 -0.55,-1.24 -0.37,-0.32 -0.83,-0.49 -1.37,-0.49 -0.54,0 -1,0.17 -1.37,0.52 -0.37,0.34 -0.55,0.77 -0.55,1.28 0,0.51 0.18,0.94 0.55,1.29 z m 17.95,3.9 c -0.97,-0.95 -2.27,-1.42 -3.88,-1.42 -0.95,0 -1.8,0.15 -2.55,0.46 -0.75,0.3 -1.37,0.75 -1.87,1.34 v -1.66 h -2.86 V 0 h 3 v -6.48 c 0,-1.25 0.32,-2.2 0.96,-2.87 0.64,-0.66 1.52,-0.99 2.62,-0.99 0.98,0 1.73,0.28 2.26,0.85 0.52,0.57 0.79,1.41 0.79,2.53 V 0 h 3 v -7.34 c 0,-1.86 -0.49,-3.26 -1.47,-4.2 z M 3.31,-3.89 4.99,0 H 8.26 L 0.67,-16.8 H -2.4 L -9.96,0 h 3.22 l 1.65,-3.89 z M 2.28,-6.34 h -6.31 l 3.14,-7.34 z m 8.62,6.1 c 0.99,0.27 2,0.41 3.04,0.41 1.8,0 3.21,-0.36 4.25,-1.08 1.04,-0.72 1.56,-1.68 1.56,-2.88 0,-0.91 -0.23,-1.62 -0.71,-2.11 -0.47,-0.5 -1.03,-0.85 -1.69,-1.06 -0.65,-0.21 -1.49,-0.39 -2.52,-0.55 -1.02,-0.18 -1.78,-0.37 -2.27,-0.57 -0.48,-0.2 -0.73,-0.54 -0.73,-1.02 0,-0.43 0.23,-0.78 0.69,-1.04 0.45,-0.26 1.12,-0.4 2,-0.4 1.36,0 2.58,0.32 3.67,0.96 l 1.15,-2.28 c -0.56,-0.33 -1.28,-0.6 -2.16,-0.8 -0.88,-0.2 -1.76,-0.3 -2.64,-0.3 -1.72,0 -3.1,0.36 -4.11,1.09 -1.02,0.73 -1.53,1.7 -1.53,2.92 0,0.93 0.25,1.65 0.74,2.17 0.48,0.52 1.06,0.88 1.72,1.09 0.67,0.21 1.53,0.39 2.58,0.55 1.01,0.16 1.74,0.33 2.2,0.51 0.46,0.17 0.68,0.49 0.68,0.93 0,0.95 -0.89,1.42 -2.68,1.42 -0.79,0 -1.58,-0.12 -2.39,-0.35 -0.81,-0.23 -1.5,-0.54 -2.08,-0.92 l -1.15,2.28 c 0.59,0.41 1.38,0.76 2.38,1.03 z M 40.15,-3.89 41.83,0 H 45.1 L 37.51,-16.8 H 34.44 L 26.88,0 h 3.22 l 1.65,-3.89 z m -1.03,-2.45 h -6.31 l 3.14,-7.34 z m 16.19,6.03 c 1.21,0.37 2.46,0.55 3.75,0.55 1.48,0 2.72,-0.22 3.75,-0.67 1.02,-0.45 1.79,-1.05 2.29,-1.8 0.5,-0.75 0.76,-1.59 0.76,-2.52 0,-1.09 -0.29,-1.95 -0.86,-2.59 -0.56,-0.64 -1.25,-1.12 -2.05,-1.43 -0.8,-0.31 -1.82,-0.61 -3.07,-0.9 -0.91,-0.23 -1.63,-0.43 -2.16,-0.6 -0.53,-0.18 -0.96,-0.42 -1.31,-0.72 -0.34,-0.31 -0.51,-0.7 -0.51,-1.18 0,-0.69 0.3,-1.24 0.9,-1.65 0.6,-0.42 1.51,-0.63 2.74,-0.63 0.76,0 1.53,0.11 2.33,0.34 0.8,0.22 1.57,0.55 2.31,0.98 l 0.98,-2.42 c -0.72,-0.48 -1.58,-0.85 -2.57,-1.11 -0.99,-0.25 -2,-0.38 -3.02,-0.38 -1.47,0 -2.72,0.22 -3.73,0.67 -1.02,0.45 -1.78,1.05 -2.28,1.81 -0.51,0.76 -0.76,1.61 -0.76,2.54 0,1.1 0.28,1.98 0.85,2.62 0.57,0.65 1.25,1.13 2.04,1.43 0.79,0.31 1.83,0.61 3.11,0.91 0.91,0.23 1.63,0.43 2.16,0.6 0.53,0.18 0.96,0.42 1.31,0.74 0.34,0.31 0.51,0.7 0.51,1.18 0,0.66 -0.3,1.19 -0.92,1.59 -0.62,0.4 -1.55,0.6 -2.8,0.6 -1,0 -2.01,-0.17 -3.01,-0.52 -1,-0.34 -1.84,-0.79 -2.53,-1.33 l -1.08,2.42 c 0.7,0.61 1.66,1.1 2.87,1.47 z m 25.35,-5.14 c 0.04,-0.38 0.05,-0.68 0.05,-0.89 0,-1.31 -0.27,-2.46 -0.83,-3.46 -0.55,-1 -1.32,-1.78 -2.3,-2.33 -0.98,-0.55 -2.1,-0.83 -3.35,-0.83 -1.26,0 -2.4,0.28 -3.41,0.84 -1,0.56 -1.79,1.34 -2.36,2.34 -0.57,1 -0.85,2.12 -0.85,3.37 0,1.27 0.29,2.4 0.87,3.4 0.59,1 1.42,1.78 2.49,2.34 1.07,0.56 2.31,0.84 3.72,0.84 1.1,0 2.09,-0.18 2.97,-0.53 0.88,-0.35 1.61,-0.87 2.19,-1.56 l -1.61,-1.85 c -0.91,0.93 -2.07,1.39 -3.48,1.39 -1.1,0 -2.03,-0.27 -2.77,-0.82 -0.75,-0.56 -1.21,-1.3 -1.38,-2.25 z M 71.8,-9.71 c 0.66,-0.57 1.47,-0.85 2.43,-0.85 0.98,0 1.79,0.29 2.45,0.86 0.66,0.58 1.05,1.33 1.18,2.26 h -7.28 c 0.15,-0.94 0.55,-1.7 1.22,-2.27 z m 19.21,-3.25 c -2.18,0 -3.7,0.67 -4.56,2.02 v -1.88 H 83.59 V 0 h 3 v -6.22 c 0,-1.28 0.33,-2.26 0.99,-2.94 0.65,-0.68 1.56,-1.02 2.73,-1.02 0.21,0 0.44,0.03 0.7,0.08 z m 15.02,0.14 h -2.88 l -4.1,9.51 -3.99,-9.51 H 91.94 L 97.44,0 h 3.1 z m 1.87,0 V 0 h 3 v -12.82 z m 0.15,-2.62 c 0.37,0.34 0.82,0.51 1.37,0.51 0.56,0 1.02,-0.18 1.38,-0.54 0.36,-0.36 0.54,-0.8 0.54,-1.33 0,-0.5 -0.19,-0.91 -0.56,-1.24 -0.36,-0.32 -0.82,-0.49 -1.36,-0.49 -0.55,0 -1,0.17 -1.37,0.52 -0.37,0.34 -0.55,0.77 -0.55,1.28 0,0.51 0.18,0.94 0.55,1.29 z m 9.09,14.77 c 1.06,0.56 2.25,0.84 3.58,0.84 1.25,0 2.35,-0.26 3.3,-0.78 0.95,-0.52 1.68,-1.26 2.17,-2.22 l -2.3,-1.35 c -0.37,0.6 -0.83,1.04 -1.38,1.34 -0.55,0.29 -1.16,0.44 -1.81,0.44 -1.14,0 -2.07,-0.36 -2.8,-1.09 -0.73,-0.73 -1.09,-1.7 -1.09,-2.92 0,-1.21 0.37,-2.19 1.1,-2.91 0.74,-0.73 1.67,-1.1 2.79,-1.1 0.65,0 1.26,0.15 1.81,0.45 0.55,0.29 1.01,0.74 1.38,1.33 l 2.3,-1.34 c -0.48,-0.96 -1.19,-1.7 -2.15,-2.21 -0.95,-0.51 -2.06,-0.77 -3.32,-0.77 -1.34,0 -2.54,0.28 -3.59,0.84 -1.05,0.56 -1.87,1.34 -2.46,2.33 -0.59,0.99 -0.89,2.12 -0.89,3.38 0,1.27 0.3,2.4 0.89,3.4 0.59,1 1.42,1.78 2.47,2.34 z m 23.45,-4.78 c 0.03,-0.38 0.05,-0.68 0.05,-0.89 0,-1.31 -0.28,-2.46 -0.83,-3.46 -0.55,-1 -1.32,-1.78 -2.3,-2.33 -0.99,-0.55 -2.1,-0.83 -3.35,-0.83 -1.26,0 -2.4,0.28 -3.41,0.84 -1.01,0.56 -1.79,1.34 -2.36,2.34 -0.57,1 -0.85,2.12 -0.85,3.37 0,1.27 0.29,2.4 0.87,3.4 0.59,1 1.41,1.78 2.49,2.34 1.07,0.56 2.31,0.84 3.72,0.84 1.1,0 2.09,-0.18 2.97,-0.53 0.88,-0.35 1.61,-0.87 2.19,-1.56 l -1.61,-1.85 c -0.91,0.93 -2.07,1.39 -3.48,1.39 -1.11,0 -2.03,-0.27 -2.77,-0.82 -0.75,-0.56 -1.21,-1.3 -1.38,-2.25 z m -8.87,-4.26 c 0.67,-0.57 1.48,-0.85 2.44,-0.85 0.98,0 1.79,0.29 2.45,0.86 0.65,0.58 1.05,1.33 1.17,2.26 h -7.27 c 0.15,-0.94 0.55,-1.7 1.21,-2.27 z m 12.71,9.47 c 0.99,0.27 2.01,0.41 3.05,0.41 1.79,0 3.21,-0.36 4.25,-1.08 1.04,-0.72 1.56,-1.68 1.56,-2.88 0,-0.91 -0.24,-1.62 -0.71,-2.11 -0.47,-0.5 -1.04,-0.85 -1.69,-1.06 -0.66,-0.21 -1.5,-0.39 -2.52,-0.55 -1.03,-0.18 -1.78,-0.37 -2.27,-0.57 -0.49,-0.2 -0.73,-0.54 -0.73,-1.02 0,-0.43 0.23,-0.78 0.68,-1.04 0.46,-0.26 1.13,-0.4 2.01,-0.4 1.36,0 2.58,0.32 3.67,0.96 l 1.15,-2.28 c -0.56,-0.33 -1.28,-0.6 -2.16,-0.8 -0.88,-0.2 -1.76,-0.3 -2.64,-0.3 -1.73,0 -3.1,0.36 -4.12,1.09 -1.01,0.73 -1.52,1.7 -1.52,2.92 0,0.93 0.24,1.65 0.73,2.17 0.49,0.52 1.07,0.88 1.73,1.09 0.66,0.21 1.52,0.39 2.58,0.55 1.01,0.16 1.74,0.33 2.2,0.51 0.45,0.17 0.68,0.49 0.68,0.93 0,0.95 -0.9,1.42 -2.69,1.42 -0.78,0 -1.58,-0.12 -2.39,-0.35 -0.8,-0.23 -1.5,-0.54 -2.07,-0.92 l -1.15,2.28 c 0.59,0.41 1.38,0.76 2.37,1.03 z"
           id="path21" />
      </g>
      <rect
         id="SvgjsRect123336"
         width="343.43234"
         height="16.944979"
         fill="#168349"
         light-content="false"
         x="3424.5676"
         y="2270.1672"
         style="stroke-width:8.47249" />
    </g>
  </g>
</svg>
